<mxfile host="app.diagrams.net" modified="2024-03-04T15:45:53.978Z" agent="Mozilla/5.0 (Windows NT 10.0; Win64; x64) AppleWebKit/537.36 (KHTML, like Gecko) Chrome/122.0.0.0 Safari/537.36 Edg/122.0.0.0" etag="lZW1_LohYc11hGHewrXV" version="24.0.1" type="device">
  <diagram name="Page-1" id="m9KYE2zA-jzoJ49TD_Bi">
    <mxGraphModel dx="760" dy="1676" grid="1" gridSize="10" guides="1" tooltips="1" connect="1" arrows="1" fold="1" page="1" pageScale="1" pageWidth="827" pageHeight="1169" math="0" shadow="0">
      <root>
        <mxCell id="0" />
        <mxCell id="1" parent="0" />
        <mxCell id="MKMyFXtZbqmn31eFtW4x-1" value="User Id&amp;nbsp;&lt;div&gt;name&amp;nbsp;&lt;/div&gt;&lt;div&gt;email&amp;nbsp;&lt;/div&gt;&lt;div&gt;role&amp;nbsp;&lt;/div&gt;" style="rounded=0;whiteSpace=wrap;html=1;" vertex="1" parent="1">
          <mxGeometry x="125" y="90" width="120" height="150" as="geometry" />
        </mxCell>
        <mxCell id="MKMyFXtZbqmn31eFtW4x-2" value="&lt;pre&gt;user id&amp;nbsp;&lt;br&gt;subject id&amp;nbsp;&lt;/pre&gt;&lt;div&gt;level&amp;nbsp;&lt;/div&gt;&lt;div&gt;age&lt;/div&gt;&lt;div&gt;&lt;br&gt;&lt;/div&gt;" style="rounded=0;whiteSpace=wrap;html=1;" vertex="1" parent="1">
          <mxGeometry x="370" y="70" width="120" height="140" as="geometry" />
        </mxCell>
        <mxCell id="MKMyFXtZbqmn31eFtW4x-3" value="resource" style="text;html=1;align=center;verticalAlign=middle;resizable=0;points=[];autosize=1;strokeColor=none;fillColor=none;" vertex="1" parent="1">
          <mxGeometry x="395" y="40" width="70" height="30" as="geometry" />
        </mxCell>
        <mxCell id="MKMyFXtZbqmn31eFtW4x-4" value="user" style="text;html=1;align=center;verticalAlign=middle;resizable=0;points=[];autosize=1;strokeColor=none;fillColor=none;" vertex="1" parent="1">
          <mxGeometry x="160" y="40" width="50" height="30" as="geometry" />
        </mxCell>
        <mxCell id="MKMyFXtZbqmn31eFtW4x-5" value="subject ID&lt;div&gt;name&lt;/div&gt;&lt;div&gt;&lt;br&gt;&lt;/div&gt;" style="rounded=0;whiteSpace=wrap;html=1;" vertex="1" parent="1">
          <mxGeometry x="560" y="70" width="120" height="130" as="geometry" />
        </mxCell>
        <mxCell id="MKMyFXtZbqmn31eFtW4x-6" value="type" style="text;html=1;align=center;verticalAlign=middle;resizable=0;points=[];autosize=1;strokeColor=none;fillColor=none;" vertex="1" parent="1">
          <mxGeometry x="370" y="345" width="50" height="30" as="geometry" />
        </mxCell>
        <mxCell id="MKMyFXtZbqmn31eFtW4x-7" value="type ID&amp;nbsp;&lt;div&gt;type (pdf/ws)&lt;/div&gt;&lt;div&gt;subtype(revision /practice)&lt;/div&gt;" style="rounded=0;whiteSpace=wrap;html=1;" vertex="1" parent="1">
          <mxGeometry x="320" y="375" width="120" height="130" as="geometry" />
        </mxCell>
        <mxCell id="MKMyFXtZbqmn31eFtW4x-9" value="post id&amp;nbsp;&lt;div&gt;user id&lt;/div&gt;&lt;div&gt;subject id&amp;nbsp;&lt;/div&gt;&lt;div&gt;question&amp;nbsp;&lt;/div&gt;&lt;div&gt;date&lt;/div&gt;&lt;div&gt;status&lt;/div&gt;" style="whiteSpace=wrap;html=1;aspect=fixed;" vertex="1" parent="1">
          <mxGeometry x="310" y="585" width="120" height="120" as="geometry" />
        </mxCell>
        <mxCell id="MKMyFXtZbqmn31eFtW4x-10" value="subject" style="text;html=1;align=center;verticalAlign=middle;resizable=0;points=[];autosize=1;strokeColor=none;fillColor=none;" vertex="1" parent="1">
          <mxGeometry x="580" y="40" width="60" height="30" as="geometry" />
        </mxCell>
        <mxCell id="MKMyFXtZbqmn31eFtW4x-11" value="post" style="text;html=1;align=center;verticalAlign=middle;resizable=0;points=[];autosize=1;strokeColor=none;fillColor=none;" vertex="1" parent="1">
          <mxGeometry x="340" y="555" width="50" height="30" as="geometry" />
        </mxCell>
        <mxCell id="MKMyFXtZbqmn31eFtW4x-12" value="post Id&lt;div&gt;user id&lt;/div&gt;&lt;div&gt;comment&amp;nbsp;&lt;/div&gt;&lt;div&gt;Time&amp;nbsp;&lt;/div&gt;" style="rounded=0;whiteSpace=wrap;html=1;" vertex="1" parent="1">
          <mxGeometry x="100" y="380" width="120" height="120" as="geometry" />
        </mxCell>
        <mxCell id="MKMyFXtZbqmn31eFtW4x-13" value="comments" style="text;html=1;align=center;verticalAlign=middle;resizable=0;points=[];autosize=1;strokeColor=none;fillColor=none;" vertex="1" parent="1">
          <mxGeometry x="650" y="-130" width="80" height="30" as="geometry" />
        </mxCell>
        <mxCell id="MKMyFXtZbqmn31eFtW4x-15" value="" style="edgeStyle=entityRelationEdgeStyle;fontSize=12;html=1;endArrow=ERoneToMany;rounded=0;entryX=0;entryY=0.5;entryDx=0;entryDy=0;" edge="1" parent="1" target="MKMyFXtZbqmn31eFtW4x-2">
          <mxGeometry width="100" height="100" relative="1" as="geometry">
            <mxPoint x="250" y="150" as="sourcePoint" />
            <mxPoint x="350" y="50" as="targetPoint" />
          </mxGeometry>
        </mxCell>
        <mxCell id="MKMyFXtZbqmn31eFtW4x-17" value="" style="edgeStyle=entityRelationEdgeStyle;fontSize=12;html=1;endArrow=ERoneToMany;rounded=0;entryX=1.022;entryY=0.413;entryDx=0;entryDy=0;entryPerimeter=0;" edge="1" parent="1" source="MKMyFXtZbqmn31eFtW4x-5" target="MKMyFXtZbqmn31eFtW4x-2">
          <mxGeometry width="100" height="100" relative="1" as="geometry">
            <mxPoint x="320" y="300" as="sourcePoint" />
            <mxPoint x="420" y="200" as="targetPoint" />
          </mxGeometry>
        </mxCell>
        <mxCell id="MKMyFXtZbqmn31eFtW4x-18" value="" style="edgeStyle=entityRelationEdgeStyle;fontSize=12;html=1;endArrow=ERoneToMany;rounded=0;exitX=1.037;exitY=0.656;exitDx=0;exitDy=0;exitPerimeter=0;entryX=0;entryY=0.25;entryDx=0;entryDy=0;" edge="1" parent="1" source="MKMyFXtZbqmn31eFtW4x-1" target="MKMyFXtZbqmn31eFtW4x-9">
          <mxGeometry width="100" height="100" relative="1" as="geometry">
            <mxPoint x="320" y="300" as="sourcePoint" />
            <mxPoint x="420" y="200" as="targetPoint" />
          </mxGeometry>
        </mxCell>
        <mxCell id="MKMyFXtZbqmn31eFtW4x-19" value="" style="edgeStyle=entityRelationEdgeStyle;fontSize=12;html=1;endArrow=ERoneToMany;rounded=0;entryX=0;entryY=0.75;entryDx=0;entryDy=0;exitX=0.5;exitY=0;exitDx=0;exitDy=0;" edge="1" parent="1" source="MKMyFXtZbqmn31eFtW4x-7" target="MKMyFXtZbqmn31eFtW4x-2">
          <mxGeometry width="100" height="100" relative="1" as="geometry">
            <mxPoint x="370" y="360" as="sourcePoint" />
            <mxPoint x="360" y="175" as="targetPoint" />
            <Array as="points">
              <mxPoint x="220" y="400" />
            </Array>
          </mxGeometry>
        </mxCell>
        <mxCell id="MKMyFXtZbqmn31eFtW4x-25" value="" style="edgeStyle=entityRelationEdgeStyle;fontSize=12;html=1;endArrow=ERoneToMany;rounded=0;entryX=1;entryY=0.5;entryDx=0;entryDy=0;exitX=0.006;exitY=0.671;exitDx=0;exitDy=0;exitPerimeter=0;" edge="1" parent="1" source="MKMyFXtZbqmn31eFtW4x-5" target="MKMyFXtZbqmn31eFtW4x-9">
          <mxGeometry width="100" height="100" relative="1" as="geometry">
            <mxPoint x="850" y="210" as="sourcePoint" />
            <mxPoint x="760" y="400" as="targetPoint" />
            <Array as="points">
              <mxPoint x="700" y="270" />
            </Array>
          </mxGeometry>
        </mxCell>
        <mxCell id="MKMyFXtZbqmn31eFtW4x-30" value="" style="edgeStyle=entityRelationEdgeStyle;fontSize=12;html=1;endArrow=ERoneToMany;rounded=0;entryX=0;entryY=0.5;entryDx=0;entryDy=0;exitX=0.5;exitY=1;exitDx=0;exitDy=0;" edge="1" parent="1" source="MKMyFXtZbqmn31eFtW4x-12">
          <mxGeometry width="100" height="100" relative="1" as="geometry">
            <mxPoint x="160" y="540" as="sourcePoint" />
            <mxPoint x="320" y="685" as="targetPoint" />
          </mxGeometry>
        </mxCell>
        <mxCell id="MKMyFXtZbqmn31eFtW4x-32" value="comment" style="text;html=1;align=center;verticalAlign=middle;resizable=0;points=[];autosize=1;strokeColor=none;fillColor=none;" vertex="1" parent="1">
          <mxGeometry x="155" y="345" width="70" height="30" as="geometry" />
        </mxCell>
        <mxCell id="MKMyFXtZbqmn31eFtW4x-33" value="" style="edgeStyle=entityRelationEdgeStyle;fontSize=12;html=1;endArrow=ERoneToMany;rounded=0;entryX=0;entryY=0.5;entryDx=0;entryDy=0;" edge="1" parent="1" source="MKMyFXtZbqmn31eFtW4x-1" target="MKMyFXtZbqmn31eFtW4x-12">
          <mxGeometry width="100" height="100" relative="1" as="geometry">
            <mxPoint x="-101.40355160361842" y="150" as="sourcePoint" />
            <mxPoint x="100" y="410" as="targetPoint" />
            <Array as="points">
              <mxPoint x="130" y="100" />
            </Array>
          </mxGeometry>
        </mxCell>
      </root>
    </mxGraphModel>
  </diagram>
</mxfile>
